M48
;Layer_Color=9474304
;FILE_FORMAT=4:4
METRIC,LZ
;TYPE=PLATED
T1F00S00C0.6000
T2F00S00C1.0000
%
T01
X0150495Y0079248
X0118745Y0079502
X0115951Y0081534
X0119761Y0085344
Y0089916
Y0095123
X0127127Y009652
X0130302Y0100838
X0136144Y0107823
X0142748Y011176
X0148971Y010541
X0142113Y0098425
X0144018Y0094996
X0145288Y0092837
X0144145Y0091313
X0139192Y0090678
X0134493Y0084328
Y008255
X0132715Y0083185
Y0085217
X0128397Y0080772
X012573
X0123063
X0143129Y0082804
X0150495Y0089408
T02
X0119634Y0074676
Y0077216
X0122174
Y0074676
X0124714
Y0077216
X0127254
Y0074676
X0129794
Y0077216
X0132334
Y0074676
X0134874
Y0077216
X0137414
Y0074676
X0139954
Y0077216
X0142494
Y0074676
X0145034
Y0077216
X0147574
Y0074676
X0117094
Y0077216
Y0112522
X0119634
X0122174
X0119507Y0106172
Y0103632
Y0101092
Y0098552
X0146558Y0112649
X0149098
Y0086995
Y0084455
Y0081915
M30
