G04 Layer_Color=65535*
%FSLAX44Y44*%
%MOMM*%
G71*
G01*
G75*
%ADD17C,0.2540*%
%ADD20C,0.6000*%
%ADD27C,0.2500*%
%ADD28C,0.3048*%
%ADD29C,0.0000*%
%ADD30C,0.2000*%
%ADD31C,0.2032*%
%ADD32C,0.1540*%
D17*
X1217930Y1090767D02*
X1224594D01*
Y1089101D01*
X1217930Y1082436D01*
Y1080770D01*
X1199194Y1090767D02*
X1195862Y1089101D01*
X1192530Y1085768D01*
Y1082436D01*
X1194196Y1080770D01*
X1197528D01*
X1199194Y1082436D01*
Y1084102D01*
X1197528Y1085768D01*
X1192530D01*
X1175064Y1090767D02*
X1168400D01*
Y1085768D01*
X1171732Y1087434D01*
X1173398D01*
X1175064Y1085768D01*
Y1082436D01*
X1173398Y1080770D01*
X1170066D01*
X1168400Y1082436D01*
X1220470Y1060532D02*
X1230467D01*
X1225468Y1065530D01*
Y1058866D01*
X1220470Y985520D02*
Y982188D01*
Y983854D01*
X1230467D01*
X1228801Y985520D01*
X1427480Y949960D02*
X1430812D01*
X1429146D01*
Y959957D01*
X1427480Y958291D01*
X1486611Y806450D02*
X1488277Y804784D01*
Y801452D01*
X1486611Y799786D01*
X1484944D01*
X1483278Y801452D01*
X1481612Y799786D01*
X1479946D01*
X1478280Y801452D01*
Y804784D01*
X1479946Y806450D01*
X1481612D01*
X1483278Y804784D01*
X1484944Y806450D01*
X1486611D01*
X1483278Y804784D02*
Y801452D01*
X1480820Y897890D02*
Y894558D01*
Y896224D01*
X1490817D01*
X1489151Y897890D01*
Y889559D02*
X1490817Y887893D01*
Y884561D01*
X1489151Y882895D01*
X1482486D01*
X1480820Y884561D01*
Y887893D01*
X1482486Y889559D01*
X1489151D01*
D20*
X1404260Y930090D02*
G03*
X1404260Y930090I-3000J0D01*
G01*
D27*
X1419260Y952590D02*
G03*
X1419260Y952590I-1250J0D01*
G01*
D28*
X1452880Y1079500D02*
Y1102360D01*
X1501140Y1079500D02*
Y1102360D01*
X1452880Y1079500D02*
X1471930D01*
X1452880Y1102360D02*
X1471930D01*
X1482090D02*
X1501140D01*
X1482090Y1079500D02*
X1501140D01*
X1219200Y1047750D02*
X1238250D01*
X1219200Y1024890D02*
X1238250D01*
X1248410D02*
X1267460D01*
X1248410Y1047750D02*
X1267460D01*
X1219200Y1024890D02*
Y1047750D01*
X1267460Y1024890D02*
Y1047750D01*
X1219200Y1019810D02*
X1238250D01*
X1219200Y996950D02*
X1238250D01*
X1248410D02*
X1267460D01*
X1248410Y1019810D02*
X1267460D01*
X1219200Y996950D02*
Y1019810D01*
X1267460Y996950D02*
Y1019810D01*
X1442720Y995680D02*
X1461770D01*
X1442720Y1018540D02*
X1461770D01*
X1413510D02*
X1432560D01*
X1413510Y995680D02*
X1432560D01*
X1461770D02*
Y1018540D01*
X1413510Y995680D02*
Y1018540D01*
X1290320Y994410D02*
X1309370D01*
X1290320Y971550D02*
X1309370D01*
X1319530D02*
X1338580D01*
X1319530Y994410D02*
X1338580D01*
X1290320Y971550D02*
Y994410D01*
X1338580Y971550D02*
Y994410D01*
X1383030Y971550D02*
X1402080D01*
X1383030Y994410D02*
X1402080D01*
X1353820D02*
X1372870D01*
X1353820Y971550D02*
X1372870D01*
X1402080D02*
Y994410D01*
X1353820Y971550D02*
Y994410D01*
X1248410Y872490D02*
X1267460D01*
X1248410Y895350D02*
X1267460D01*
X1219200D02*
X1238250D01*
X1219200Y872490D02*
X1238250D01*
X1267460D02*
Y895350D01*
X1219200Y872490D02*
Y895350D01*
X1248410Y899160D02*
X1267460D01*
X1248410Y922020D02*
X1267460D01*
X1219200D02*
X1238250D01*
X1219200Y899160D02*
X1238250D01*
X1267460D02*
Y922020D01*
X1219200Y899160D02*
Y922020D01*
X1248410Y925830D02*
X1267460D01*
X1248410Y948690D02*
X1267460D01*
X1219200D02*
X1238250D01*
X1219200Y925830D02*
X1238250D01*
X1267460D02*
Y948690D01*
X1219200Y925830D02*
Y948690D01*
X1175512Y844296D02*
X1186942D01*
X1176020Y815340D02*
X1187450D01*
X1175512Y891286D02*
X1186942D01*
X1176020Y862330D02*
X1187450D01*
X1175512Y941324D02*
X1186942D01*
X1176020Y912368D02*
X1187450D01*
X1295400Y843280D02*
Y862330D01*
X1272540Y843280D02*
Y862330D01*
Y814070D02*
Y833120D01*
X1295400Y814070D02*
Y833120D01*
X1272540Y862330D02*
X1295400D01*
X1272540Y814070D02*
X1295400D01*
X1268730Y843280D02*
Y862330D01*
X1245870Y843280D02*
Y862330D01*
Y814070D02*
Y833120D01*
X1268730Y814070D02*
Y833120D01*
X1245870Y862330D02*
X1268730D01*
X1245870Y814070D02*
X1268730D01*
X1242060Y843280D02*
Y862330D01*
X1219200Y843280D02*
Y862330D01*
Y814070D02*
Y833120D01*
X1242060Y814070D02*
Y833120D01*
X1219200Y862330D02*
X1242060D01*
X1219200Y814070D02*
X1242060D01*
X1465580Y838200D02*
Y857250D01*
X1442720Y838200D02*
Y857250D01*
Y808990D02*
Y828040D01*
X1465580Y808990D02*
Y828040D01*
X1442720Y857250D02*
X1465580D01*
X1442720Y808990D02*
X1465580D01*
D29*
X1158240Y734060D02*
Y784860D01*
D30*
X1352260Y881090D02*
Y940090D01*
X1411260Y881090D02*
Y940090D01*
X1352260Y881090D02*
X1411260D01*
X1352260Y940090D02*
X1411260D01*
X1304290Y1076960D02*
X1419860D01*
X1304290Y1023620D02*
X1419860D01*
D31*
X1476161Y1071454D02*
X1474468Y1073147D01*
X1471083D01*
X1469390Y1071454D01*
Y1064683D01*
X1471083Y1062990D01*
X1474468D01*
X1476161Y1064683D01*
X1486318Y1073147D02*
X1482932Y1071454D01*
X1479547Y1068068D01*
Y1064683D01*
X1481239Y1062990D01*
X1484625D01*
X1486318Y1064683D01*
Y1066376D01*
X1484625Y1068068D01*
X1479547D01*
X1250950Y1056640D02*
Y1066797D01*
X1256028D01*
X1257721Y1065104D01*
Y1061718D01*
X1256028Y1060026D01*
X1250950D01*
X1254336D02*
X1257721Y1056640D01*
X1267878D02*
X1261107D01*
X1267878Y1063411D01*
Y1065104D01*
X1266185Y1066797D01*
X1262800D01*
X1261107Y1065104D01*
X1250950Y979170D02*
Y989327D01*
X1256028D01*
X1257721Y987634D01*
Y984248D01*
X1256028Y982556D01*
X1250950D01*
X1254336D02*
X1257721Y979170D01*
X1261107Y987634D02*
X1262800Y989327D01*
X1266185D01*
X1267878Y987634D01*
Y985941D01*
X1266185Y984248D01*
X1264492D01*
X1266185D01*
X1267878Y982556D01*
Y980863D01*
X1266185Y979170D01*
X1262800D01*
X1261107Y980863D01*
X1264923Y788670D02*
X1275080D01*
Y793748D01*
X1273387Y795441D01*
X1266616D01*
X1264923Y793748D01*
Y788670D01*
X1275080Y805598D02*
Y798827D01*
X1268309Y805598D01*
X1266616D01*
X1264923Y803905D01*
Y800519D01*
X1266616Y798827D01*
X1296673Y789940D02*
X1306830D01*
Y795018D01*
X1305137Y796711D01*
X1298366D01*
X1296673Y795018D01*
Y789940D01*
X1298366Y800097D02*
X1296673Y801789D01*
Y805175D01*
X1298366Y806868D01*
X1300059D01*
X1301752Y805175D01*
Y803482D01*
Y805175D01*
X1303444Y806868D01*
X1305137D01*
X1306830Y805175D01*
Y801789D01*
X1305137Y800097D01*
X1458381Y985094D02*
X1456688Y986787D01*
X1453303D01*
X1451610Y985094D01*
Y978323D01*
X1453303Y976630D01*
X1456688D01*
X1458381Y978323D01*
X1461767Y976630D02*
X1465152D01*
X1463459D01*
Y986787D01*
X1461767Y985094D01*
X1308521Y959694D02*
X1306828Y961387D01*
X1303443D01*
X1301750Y959694D01*
Y952923D01*
X1303443Y951230D01*
X1306828D01*
X1308521Y952923D01*
X1318678Y951230D02*
X1311907D01*
X1318678Y958001D01*
Y959694D01*
X1316985Y961387D01*
X1313600D01*
X1311907Y959694D01*
X1419011Y976204D02*
X1417318Y977897D01*
X1413933D01*
X1412240Y976204D01*
Y969433D01*
X1413933Y967740D01*
X1417318D01*
X1419011Y969433D01*
X1427475Y967740D02*
Y977897D01*
X1422397Y972818D01*
X1429168D01*
X1276350Y877570D02*
Y887727D01*
X1281428D01*
X1283121Y886034D01*
Y882648D01*
X1281428Y880956D01*
X1276350D01*
X1279736D02*
X1283121Y877570D01*
X1291585D02*
Y887727D01*
X1286507Y882648D01*
X1293278D01*
X1276350Y905510D02*
Y915667D01*
X1281428D01*
X1283121Y913974D01*
Y910588D01*
X1281428Y908896D01*
X1276350D01*
X1279736D02*
X1283121Y905510D01*
X1293278Y915667D02*
X1286507D01*
Y910588D01*
X1289892Y912281D01*
X1291585D01*
X1293278Y910588D01*
Y907203D01*
X1291585Y905510D01*
X1288199D01*
X1286507Y907203D01*
X1276350Y932180D02*
Y942337D01*
X1281428D01*
X1283121Y940644D01*
Y937258D01*
X1281428Y935566D01*
X1276350D01*
X1279736D02*
X1283121Y932180D01*
X1293278Y942337D02*
X1289892Y940644D01*
X1286507Y937258D01*
Y933873D01*
X1288199Y932180D01*
X1291585D01*
X1293278Y933873D01*
Y935566D01*
X1291585Y937258D01*
X1286507D01*
X1442720Y886457D02*
Y877993D01*
X1444413Y876300D01*
X1447798D01*
X1449491Y877993D01*
Y886457D01*
X1452877Y876300D02*
X1456262D01*
X1454570D01*
Y886457D01*
X1452877Y884764D01*
X1144691Y823383D02*
Y830154D01*
X1142998Y831847D01*
X1139613D01*
X1137920Y830154D01*
Y823383D01*
X1139613Y821690D01*
X1142998D01*
X1141306Y825076D02*
X1144691Y821690D01*
X1142998D02*
X1144691Y823383D01*
X1148077Y821690D02*
X1151462D01*
X1149770D01*
Y831847D01*
X1148077Y830154D01*
X1144693Y874183D02*
Y880954D01*
X1143000Y882647D01*
X1139614D01*
X1137922Y880954D01*
Y874183D01*
X1139614Y872490D01*
X1143000D01*
X1141307Y875876D02*
X1144693Y872490D01*
X1143000D02*
X1144693Y874183D01*
X1154849Y872490D02*
X1148078D01*
X1154849Y879261D01*
Y880954D01*
X1153157Y882647D01*
X1149771D01*
X1148078Y880954D01*
X1144693Y921173D02*
Y927944D01*
X1143000Y929637D01*
X1139614D01*
X1137922Y927944D01*
Y921173D01*
X1139614Y919480D01*
X1143000D01*
X1141307Y922866D02*
X1144693Y919480D01*
X1143000D02*
X1144693Y921173D01*
X1148078Y927944D02*
X1149771Y929637D01*
X1153157D01*
X1154849Y927944D01*
Y926251D01*
X1153157Y924558D01*
X1151464D01*
X1153157D01*
X1154849Y922866D01*
Y921173D01*
X1153157Y919480D01*
X1149771D01*
X1148078Y921173D01*
X1294130Y1097277D02*
Y1095584D01*
X1297516Y1092198D01*
X1300901Y1095584D01*
Y1097277D01*
X1297516Y1092198D02*
Y1087120D01*
X1304287D02*
X1307672D01*
X1305979D01*
Y1097277D01*
X1304287Y1095584D01*
X1443990Y792480D02*
Y802637D01*
X1449068D01*
X1450761Y800944D01*
Y797558D01*
X1449068Y795866D01*
X1443990D01*
X1447376D02*
X1450761Y792480D01*
X1454147D02*
X1457532D01*
X1455840D01*
Y802637D01*
X1454147Y800944D01*
X1469382Y792480D02*
X1462611D01*
X1469382Y799251D01*
Y800944D01*
X1467689Y802637D01*
X1464303D01*
X1462611Y800944D01*
X1209043Y789940D02*
X1219200D01*
Y795018D01*
X1217507Y796711D01*
X1210736D01*
X1209043Y795018D01*
Y789940D01*
X1219200Y800097D02*
Y803482D01*
Y801789D01*
X1209043D01*
X1210736Y800097D01*
X1139151Y765810D02*
X1132380D01*
X1139151Y772581D01*
Y774274D01*
X1137458Y775967D01*
X1134073D01*
X1132380Y774274D01*
X1149308Y775967D02*
X1142537D01*
Y770888D01*
X1145922Y772581D01*
X1147615D01*
X1149308Y770888D01*
Y767503D01*
X1147615Y765810D01*
X1144230D01*
X1142537Y767503D01*
X1497751Y741680D02*
X1490980D01*
X1497751Y748451D01*
Y750144D01*
X1496058Y751837D01*
X1492673D01*
X1490980Y750144D01*
X1492250Y767080D02*
X1495636D01*
X1493943D01*
Y777237D01*
X1492250Y775544D01*
X1139151Y741680D02*
X1132380D01*
X1139151Y748451D01*
Y750144D01*
X1137458Y751837D01*
X1134073D01*
X1132380Y750144D01*
X1149308Y751837D02*
X1145922Y750144D01*
X1142537Y746758D01*
Y743373D01*
X1144230Y741680D01*
X1147615D01*
X1149308Y743373D01*
Y745066D01*
X1147615Y746758D01*
X1142537D01*
D32*
X1506342Y1111250D02*
X1504843Y1112749D01*
Y1115749D01*
X1506342Y1117248D01*
X1512341D01*
X1513840Y1115749D01*
Y1112749D01*
X1512341Y1111250D01*
X1506342D01*
X1504843Y1120247D02*
X1510841D01*
X1513840Y1123246D01*
X1510841Y1126245D01*
X1504843D01*
X1442613Y1118518D02*
Y1112520D01*
X1447112D01*
X1445612Y1115519D01*
Y1117019D01*
X1447112Y1118518D01*
X1450110D01*
X1451610Y1117019D01*
Y1114019D01*
X1450110Y1112520D01*
X1442613Y1121517D02*
X1448611D01*
X1451610Y1124516D01*
X1448611Y1127515D01*
X1442613D01*
X1242978Y1130407D02*
X1239979Y1128908D01*
X1236980Y1125909D01*
Y1122909D01*
X1238480Y1121410D01*
X1241479D01*
X1242978Y1122909D01*
Y1124409D01*
X1241479Y1125909D01*
X1236980D01*
X1260972Y1128908D02*
X1259473Y1130407D01*
X1256474D01*
X1254974Y1128908D01*
Y1127408D01*
X1256474Y1125909D01*
X1259473D01*
X1260972Y1124409D01*
Y1122909D01*
X1259473Y1121410D01*
X1256474D01*
X1254974Y1122909D01*
X1263971Y1130407D02*
Y1121410D01*
X1266970Y1124409D01*
X1269969Y1121410D01*
Y1130407D01*
X1272968Y1121410D02*
Y1127408D01*
X1275967Y1130407D01*
X1278966Y1127408D01*
Y1121410D01*
Y1125909D01*
X1272968D01*
X1287964Y1127408D02*
X1283465D01*
X1281965Y1125909D01*
Y1122909D01*
X1283465Y1121410D01*
X1287964D01*
X1292462Y1128908D02*
Y1127408D01*
X1290963D01*
X1293961D01*
X1292462D01*
Y1122909D01*
X1293961Y1121410D01*
X1307457Y1130407D02*
X1313455D01*
Y1128908D01*
X1307457Y1122909D01*
Y1121410D01*
X1325451D02*
Y1130407D01*
X1328450Y1127408D01*
X1331449Y1130407D01*
Y1121410D01*
X1335948Y1127408D02*
X1338947D01*
X1340446Y1125909D01*
Y1121410D01*
X1335948D01*
X1334448Y1122909D01*
X1335948Y1124409D01*
X1340446D01*
X1343445Y1121410D02*
X1347944D01*
X1349444Y1122909D01*
X1347944Y1124409D01*
X1344945D01*
X1343445Y1125909D01*
X1344945Y1127408D01*
X1349444D01*
X1353942Y1128908D02*
Y1127408D01*
X1352443D01*
X1355442D01*
X1353942D01*
Y1122909D01*
X1355442Y1121410D01*
X1364439D02*
X1361440D01*
X1359940Y1122909D01*
Y1125909D01*
X1361440Y1127408D01*
X1364439D01*
X1365938Y1125909D01*
Y1124409D01*
X1359940D01*
X1368937Y1127408D02*
Y1121410D01*
Y1124409D01*
X1370437Y1125909D01*
X1371936Y1127408D01*
X1373436D01*
X1383932Y1128908D02*
X1382433Y1130407D01*
X1379434D01*
X1377934Y1128908D01*
Y1122909D01*
X1379434Y1121410D01*
X1382433D01*
X1383932Y1122909D01*
X1388431Y1121410D02*
X1391430D01*
X1392930Y1122909D01*
Y1125909D01*
X1391430Y1127408D01*
X1388431D01*
X1386931Y1125909D01*
Y1122909D01*
X1388431Y1121410D01*
X1395928D02*
Y1127408D01*
X1400427D01*
X1401927Y1125909D01*
Y1121410D01*
X1404926D02*
Y1127408D01*
X1409424D01*
X1410924Y1125909D01*
Y1121410D01*
X1238250Y1136650D02*
X1241249D01*
X1239750D01*
Y1145647D01*
X1238250Y1144148D01*
X1245748Y1136650D02*
Y1145647D01*
X1250246D01*
X1251746Y1144148D01*
Y1141149D01*
X1250246Y1139649D01*
X1245748D01*
X1254745Y1145647D02*
X1260743D01*
X1257744D01*
Y1136650D01*
X1263742Y1145647D02*
X1269740D01*
X1266741D01*
Y1136650D01*
X1287734D02*
X1281736D01*
X1287734Y1142648D01*
Y1144148D01*
X1286234Y1145647D01*
X1283235D01*
X1281736Y1144148D01*
X1290733Y1136650D02*
Y1145647D01*
X1293732Y1142648D01*
X1296731Y1145647D01*
Y1136650D01*
X1299730Y1145647D02*
Y1136650D01*
X1304229D01*
X1305728Y1138149D01*
Y1144148D01*
X1304229Y1145647D01*
X1299730D01*
X1308727D02*
Y1136650D01*
X1314725D01*
X1326721Y1144148D02*
X1328221Y1145647D01*
X1331220D01*
X1332719Y1144148D01*
Y1142648D01*
X1331220Y1141149D01*
X1329720D01*
X1331220D01*
X1332719Y1139649D01*
Y1138149D01*
X1331220Y1136650D01*
X1328221D01*
X1326721Y1138149D01*
X1335718Y1136650D02*
Y1145647D01*
X1338717Y1142648D01*
X1341716Y1145647D01*
Y1136650D01*
X1344716Y1145647D02*
Y1136650D01*
X1349214D01*
X1350714Y1138149D01*
Y1144148D01*
X1349214Y1145647D01*
X1344716D01*
X1359711D02*
X1353713D01*
Y1136650D01*
X1359711D01*
X1353713Y1141149D02*
X1356712D01*
X1376205Y1136650D02*
Y1145647D01*
X1371707Y1141149D01*
X1377705D01*
X1380704Y1136650D02*
X1386702Y1142648D01*
X1395699Y1145647D02*
X1389701D01*
Y1141149D01*
X1392700Y1142648D01*
X1394200D01*
X1395699Y1141149D01*
Y1138149D01*
X1394200Y1136650D01*
X1391201D01*
X1389701Y1138149D01*
X1398698Y1136650D02*
X1404696Y1142648D01*
X1407695Y1136650D02*
X1410694D01*
X1409195D01*
Y1145647D01*
X1407695Y1144148D01*
X1415193D02*
X1416692Y1145647D01*
X1419691D01*
X1421191Y1144148D01*
Y1138149D01*
X1419691Y1136650D01*
X1416692D01*
X1415193Y1138149D01*
Y1144148D01*
X1430188D02*
X1428688Y1145647D01*
X1425689D01*
X1424190Y1144148D01*
Y1138149D01*
X1425689Y1136650D01*
X1428688D01*
X1430188Y1138149D01*
Y1141149D01*
X1427189D01*
X1433187Y1136650D02*
Y1145647D01*
X1439185Y1136650D01*
Y1145647D01*
X1442184D02*
Y1136650D01*
X1446682D01*
X1448182Y1138149D01*
Y1144148D01*
X1446682Y1145647D01*
X1442184D01*
X1490980Y949005D02*
Y942340D01*
X1484315Y949005D01*
X1482649D01*
X1480983Y947338D01*
Y944006D01*
X1482649Y942340D01*
Y952337D02*
X1480983Y954003D01*
Y957335D01*
X1482649Y959001D01*
X1489314D01*
X1490980Y957335D01*
Y954003D01*
X1489314Y952337D01*
X1482649D01*
X1490980Y962334D02*
Y965666D01*
Y964000D01*
X1480983D01*
X1482649Y962334D01*
X1480983Y970664D02*
Y977329D01*
X1482649D01*
X1489314Y970664D01*
X1490980D01*
X1480983Y990658D02*
X1490980D01*
Y995656D01*
X1489314Y997322D01*
X1482649D01*
X1480983Y995656D01*
Y990658D01*
Y1000655D02*
X1490980D01*
X1485982D01*
Y1007319D01*
X1480983D01*
X1490980D01*
X1482649Y1010651D02*
X1480983Y1012318D01*
Y1015650D01*
X1482649Y1017316D01*
X1484315D01*
X1485982Y1015650D01*
Y1013984D01*
Y1015650D01*
X1487648Y1017316D01*
X1489314D01*
X1490980Y1015650D01*
Y1012318D01*
X1489314Y1010651D01*
X1480983Y1020648D02*
X1490980D01*
X1487648Y1023980D01*
X1490980Y1027313D01*
X1480983D01*
X1490980Y1030645D02*
X1480983D01*
Y1035643D01*
X1482649Y1037309D01*
X1485982D01*
X1487648Y1035643D01*
Y1030645D01*
Y1033977D02*
X1490980Y1037309D01*
X1500429Y929955D02*
X1498763Y928288D01*
Y924956D01*
X1500429Y923290D01*
X1507094D01*
X1508760Y924956D01*
Y928288D01*
X1507094Y929955D01*
Y933287D02*
X1508760Y934953D01*
Y938285D01*
X1507094Y939951D01*
X1500429D01*
X1498763Y938285D01*
Y934953D01*
X1500429Y933287D01*
X1502095D01*
X1503762Y934953D01*
Y939951D01*
X1500429Y943284D02*
X1498763Y944950D01*
Y948282D01*
X1500429Y949948D01*
X1507094D01*
X1508760Y948282D01*
Y944950D01*
X1507094Y943284D01*
X1500429D01*
Y953280D02*
X1498763Y954947D01*
Y958279D01*
X1500429Y959945D01*
X1507094D01*
X1508760Y958279D01*
Y954947D01*
X1507094Y953280D01*
X1500429D01*
Y963277D02*
X1498763Y964943D01*
Y968276D01*
X1500429Y969942D01*
X1507094D01*
X1508760Y968276D01*
Y964943D01*
X1507094Y963277D01*
X1500429D01*
X1508760Y983271D02*
X1498763D01*
Y988269D01*
X1500429Y989935D01*
X1503762D01*
X1505428Y988269D01*
Y983271D01*
Y986603D02*
X1508760Y989935D01*
X1502095Y994934D02*
Y998266D01*
X1503762Y999932D01*
X1508760D01*
Y994934D01*
X1507094Y993268D01*
X1505428Y994934D01*
Y999932D01*
X1508760Y1003264D02*
Y1008263D01*
X1507094Y1009929D01*
X1505428Y1008263D01*
Y1004930D01*
X1503762Y1003264D01*
X1502095Y1004930D01*
Y1009929D01*
X1508760Y1013261D02*
X1498763D01*
Y1018259D01*
X1500429Y1019926D01*
X1503762D01*
X1505428Y1018259D01*
Y1013261D01*
X1502095Y1024924D02*
Y1028256D01*
X1503762Y1029922D01*
X1508760D01*
Y1024924D01*
X1507094Y1023258D01*
X1505428Y1024924D01*
Y1029922D01*
X1512092Y1036587D02*
Y1038253D01*
X1510426Y1039919D01*
X1502095D01*
Y1034921D01*
X1503762Y1033255D01*
X1507094D01*
X1508760Y1034921D01*
Y1039919D01*
Y1048250D02*
Y1044918D01*
X1507094Y1043251D01*
X1503762D01*
X1502095Y1044918D01*
Y1048250D01*
X1503762Y1049916D01*
X1505428D01*
Y1043251D01*
X1502095Y1053248D02*
X1508760D01*
X1505428D01*
X1503762Y1054914D01*
X1502095Y1056580D01*
Y1058247D01*
X1238357Y1113668D02*
X1239857Y1115167D01*
X1242856D01*
X1244355Y1113668D01*
Y1112168D01*
X1242856Y1110668D01*
X1244355Y1109169D01*
Y1107670D01*
X1242856Y1106170D01*
X1239857D01*
X1238357Y1107670D01*
Y1109169D01*
X1239857Y1110668D01*
X1238357Y1112168D01*
Y1113668D01*
X1239857Y1110668D02*
X1242856D01*
X1256351Y1113668D02*
X1257851Y1115167D01*
X1260850D01*
X1262349Y1113668D01*
Y1112168D01*
X1260850Y1110668D01*
X1259350D01*
X1260850D01*
X1262349Y1109169D01*
Y1107670D01*
X1260850Y1106170D01*
X1257851D01*
X1256351Y1107670D01*
X1265348Y1115167D02*
Y1109169D01*
X1268347Y1106170D01*
X1271346Y1109169D01*
Y1115167D01*
X1274345Y1113668D02*
X1275845Y1115167D01*
X1278844D01*
X1280343Y1113668D01*
Y1112168D01*
X1278844Y1110668D01*
X1277345D01*
X1278844D01*
X1280343Y1109169D01*
Y1107670D01*
X1278844Y1106170D01*
X1275845D01*
X1274345Y1107670D01*
X1292340D02*
X1293839Y1106170D01*
X1296838D01*
X1298338Y1107670D01*
Y1113668D01*
X1296838Y1115167D01*
X1293839D01*
X1292340Y1113668D01*
Y1112168D01*
X1293839Y1110668D01*
X1298338D01*
X1314832Y1115167D02*
X1311833D01*
X1310334Y1113668D01*
Y1107670D01*
X1311833Y1106170D01*
X1314832D01*
X1316332Y1107670D01*
Y1113668D01*
X1314832Y1115167D01*
X1319331Y1106170D02*
Y1112168D01*
X1323829D01*
X1325329Y1110668D01*
Y1106170D01*
X1332827D02*
X1329828D01*
X1328328Y1107670D01*
Y1110668D01*
X1329828Y1112168D01*
X1332827D01*
X1334326Y1110668D01*
Y1109169D01*
X1328328D01*
X1337325Y1115167D02*
Y1106170D01*
X1340324Y1109169D01*
X1343323Y1106170D01*
Y1115167D01*
X1346322Y1106170D02*
X1349321D01*
X1347822D01*
Y1112168D01*
X1346322D01*
X1353820D02*
Y1106170D01*
Y1109169D01*
X1355319Y1110668D01*
X1356819Y1112168D01*
X1358318D01*
X1367315Y1106170D02*
X1364316D01*
X1362817Y1107670D01*
Y1110668D01*
X1364316Y1112168D01*
X1367315D01*
X1368815Y1110668D01*
Y1109169D01*
X1362817D01*
M02*
