G04 Layer_Physical_Order=1*
G04 Layer_Color=255*
%FSLAX44Y44*%
%MOMM*%
G71*
G01*
G75*
%ADD10R,1.5240X1.2700*%
%ADD11O,1.6500X0.4000*%
%ADD12O,0.4000X1.6500*%
%ADD13R,1.2700X0.9144*%
%ADD14R,0.9144X0.9144*%
%ADD15R,5.5000X2.0000*%
%ADD16R,1.2700X1.5240*%
%ADD17C,0.2540*%
%ADD18C,0.4000*%
%ADD19C,0.7000*%
%ADD20C,0.6000*%
%ADD21C,0.3000*%
%ADD22R,4.0000X1.7000*%
%ADD23R,1.7000X4.0000*%
G04:AMPARAMS|DCode=24|XSize=1.7mm|YSize=1.8mm|CornerRadius=0mm|HoleSize=0mm|Usage=FLASHONLY|Rotation=180.000|XOffset=0mm|YOffset=0mm|HoleType=Round|Shape=Octagon|*
%AMOCTAGOND24*
4,1,8,0.4250,-0.9000,-0.4250,-0.9000,-0.8500,-0.4750,-0.8500,0.4750,-0.4250,0.9000,0.4250,0.9000,0.8500,0.4750,0.8500,-0.4750,0.4250,-0.9000,0.0*
%
%ADD24OCTAGOND24*%

%ADD25R,1.7000X1.8000*%
%ADD26C,1.2000*%
G36*
X1524937Y719154D02*
X1129363D01*
Y1155367D01*
X1524937D01*
Y719154D01*
D02*
G37*
%LPC*%
G36*
X1201352Y782684D02*
X1191328D01*
X1186316Y777672D01*
Y766648D01*
X1191328Y761636D01*
X1201352D01*
X1206364Y766648D01*
Y777672D01*
X1201352Y782684D01*
D02*
G37*
G36*
X1455352Y757284D02*
X1445328D01*
X1440316Y752272D01*
Y741248D01*
X1445328Y736236D01*
X1455352D01*
X1460364Y741248D01*
Y752272D01*
X1455352Y757284D01*
D02*
G37*
G36*
X1404552D02*
X1394528D01*
X1389516Y752272D01*
Y741248D01*
X1394528Y736236D01*
X1404552D01*
X1409564Y741248D01*
Y752272D01*
X1404552Y757284D01*
D02*
G37*
G36*
X1353752Y782684D02*
X1343728D01*
X1338716Y777672D01*
Y766648D01*
X1343728Y761636D01*
X1353752D01*
X1358764Y766648D01*
Y777672D01*
X1353752Y782684D01*
D02*
G37*
G36*
X1277552D02*
X1267528D01*
X1262516Y777672D01*
Y766648D01*
X1267528Y761636D01*
X1277552D01*
X1282564Y766648D01*
Y777672D01*
X1277552Y782684D01*
D02*
G37*
G36*
X1226752D02*
X1216728D01*
X1211716Y777672D01*
Y766648D01*
X1216728Y761636D01*
X1226752D01*
X1231764Y766648D01*
Y777672D01*
X1226752Y782684D01*
D02*
G37*
G36*
X1379152Y757284D02*
X1369128D01*
X1364116Y752272D01*
Y741248D01*
X1369128Y736236D01*
X1379152D01*
X1384164Y741248D01*
Y752272D01*
X1379152Y757284D01*
D02*
G37*
G36*
X1201352D02*
X1191328D01*
X1186316Y752272D01*
Y741248D01*
X1191328Y736236D01*
X1201352D01*
X1206364Y741248D01*
Y752272D01*
X1201352Y757284D01*
D02*
G37*
G36*
X1175952D02*
X1165928D01*
X1160916Y752272D01*
Y741248D01*
X1165928Y736236D01*
X1175952D01*
X1180964Y741248D01*
Y752272D01*
X1175952Y757284D01*
D02*
G37*
G36*
X1504950Y800069D02*
X1502986Y799810D01*
X1501156Y799052D01*
X1499584Y797846D01*
X1498378Y796274D01*
X1497620Y794444D01*
X1497361Y792480D01*
X1497620Y790516D01*
X1498378Y788686D01*
X1499584Y787114D01*
X1501156Y785908D01*
X1502101Y785516D01*
Y750480D01*
X1483450Y731829D01*
X1353730D01*
X1351589Y733970D01*
Y736236D01*
X1353752D01*
X1358764Y741248D01*
Y752272D01*
X1353752Y757284D01*
X1343728D01*
X1338716Y752272D01*
Y741248D01*
X1343728Y736236D01*
X1345891D01*
Y732790D01*
X1345891Y732790D01*
X1346108Y731700D01*
X1346726Y730776D01*
X1350536Y726966D01*
X1351460Y726348D01*
X1352550Y726131D01*
X1352550Y726131D01*
X1484630D01*
X1484630Y726131D01*
X1485720Y726348D01*
X1486644Y726966D01*
X1506964Y747286D01*
X1506964Y747286D01*
X1507582Y748210D01*
X1507799Y749300D01*
X1507799Y749300D01*
Y785516D01*
X1508745Y785908D01*
X1510316Y787114D01*
X1511522Y788686D01*
X1512280Y790516D01*
X1512539Y792480D01*
X1512280Y794444D01*
X1511522Y796274D01*
X1510316Y797846D01*
X1508745Y799052D01*
X1506914Y799810D01*
X1504950Y800069D01*
D02*
G37*
G36*
X1302952Y757284D02*
X1292928D01*
X1287916Y752272D01*
Y741248D01*
X1292928Y736236D01*
X1302952D01*
X1307964Y741248D01*
Y752272D01*
X1302952Y757284D01*
D02*
G37*
G36*
X1277552D02*
X1267528D01*
X1262516Y752272D01*
Y741248D01*
X1267528Y736236D01*
X1277552D01*
X1282564Y741248D01*
Y752272D01*
X1277552Y757284D01*
D02*
G37*
G36*
X1226752D02*
X1216728D01*
X1211716Y752272D01*
Y741248D01*
X1216728Y736236D01*
X1226752D01*
X1231764Y741248D01*
Y752272D01*
X1226752Y757284D01*
D02*
G37*
G36*
X1241044Y945134D02*
X1222756D01*
Y940109D01*
X1220470D01*
X1220470Y940109D01*
X1219380Y939892D01*
X1218456Y939274D01*
X1218456Y939274D01*
X1202725Y923544D01*
X1191514D01*
Y911352D01*
X1203706D01*
Y916467D01*
X1220756Y933517D01*
X1222756Y932689D01*
Y929386D01*
X1241044D01*
Y945134D01*
D02*
G37*
G36*
Y918464D02*
X1222756D01*
Y912932D01*
X1222266Y912604D01*
X1222266Y912604D01*
X1210836Y901174D01*
X1210218Y900250D01*
X1210001Y899160D01*
X1210001Y899160D01*
Y877480D01*
X1205347Y872826D01*
X1203706Y873506D01*
Y873506D01*
X1191514D01*
Y861314D01*
X1203706D01*
Y862627D01*
X1203960Y864561D01*
X1205050Y864778D01*
X1205974Y865396D01*
X1214864Y874286D01*
X1214864Y874286D01*
X1215482Y875210D01*
X1215699Y876300D01*
X1215699Y876300D01*
Y897980D01*
X1221115Y903396D01*
X1222756Y902716D01*
Y902716D01*
X1241044D01*
Y918464D01*
D02*
G37*
G36*
X1515980Y858050D02*
X1465980D01*
Y847399D01*
X1462024D01*
Y853694D01*
X1446276D01*
Y835406D01*
X1462024D01*
Y841701D01*
X1465980D01*
Y831050D01*
Y824539D01*
X1462024D01*
Y830834D01*
X1446276D01*
Y824539D01*
X1440527D01*
X1439912Y825107D01*
X1439034Y826539D01*
X1439232Y828040D01*
X1438961Y830096D01*
X1438168Y832011D01*
X1436906Y833656D01*
X1435261Y834918D01*
X1433345Y835711D01*
X1431290Y835982D01*
X1429234Y835711D01*
X1427319Y834918D01*
X1425674Y833656D01*
X1424412Y832011D01*
X1423619Y830096D01*
X1423348Y828040D01*
X1423619Y825984D01*
X1424412Y824069D01*
X1425674Y822424D01*
X1427319Y821162D01*
X1429234Y820369D01*
X1431290Y820098D01*
X1433345Y820369D01*
X1434468Y820834D01*
X1435626Y819676D01*
X1435626Y819676D01*
X1436550Y819058D01*
X1437640Y818841D01*
X1446276D01*
Y812546D01*
X1462024D01*
Y818841D01*
X1465980D01*
Y805650D01*
X1515980D01*
Y831050D01*
Y858050D01*
D02*
G37*
G36*
X1409760Y962433D02*
X1408385Y962160D01*
X1407219Y961381D01*
X1406871Y960860D01*
X1406756Y960818D01*
X1404764D01*
X1404649Y960860D01*
X1404301Y961381D01*
X1403135Y962160D01*
X1401760Y962433D01*
X1400385Y962160D01*
X1399219Y961381D01*
X1398441Y960215D01*
X1398167Y958840D01*
Y946340D01*
X1398441Y944965D01*
X1399219Y943799D01*
X1400385Y943020D01*
X1401760Y942747D01*
X1403135Y943020D01*
X1404301Y943799D01*
X1404649Y944320D01*
X1404764Y944362D01*
X1406756D01*
X1406871Y944320D01*
X1407219Y943799D01*
X1408385Y943020D01*
X1409760Y942747D01*
X1411135Y943020D01*
X1412301Y943799D01*
X1413080Y944965D01*
X1413353Y946340D01*
Y958840D01*
X1413080Y960215D01*
X1412301Y961381D01*
X1411135Y962160D01*
X1409760Y962433D01*
D02*
G37*
G36*
X1235240Y1150220D02*
X1182840D01*
Y1100220D01*
X1235240D01*
Y1150220D01*
D02*
G37*
G36*
X1220070Y1049820D02*
X1170070D01*
Y1039169D01*
X1162050D01*
X1162050Y1039169D01*
X1160960Y1038952D01*
X1160036Y1038334D01*
X1160036Y1038334D01*
X1144796Y1023094D01*
X1144178Y1022170D01*
X1143961Y1021080D01*
X1143961Y1021080D01*
Y850900D01*
X1143961Y850900D01*
X1144178Y849810D01*
X1144796Y848886D01*
X1165624Y828058D01*
X1165624Y828058D01*
X1166548Y827440D01*
X1167638Y827223D01*
X1169416Y826690D01*
Y823976D01*
X1185164D01*
Y836168D01*
X1169416D01*
Y835151D01*
X1167416Y834323D01*
X1149659Y852080D01*
Y1019900D01*
X1163230Y1033471D01*
X1170070D01*
Y1022820D01*
Y1013769D01*
X1164590D01*
X1163500Y1013552D01*
X1162576Y1012934D01*
X1162576Y1012934D01*
X1156226Y1006584D01*
X1155608Y1005660D01*
X1155391Y1004570D01*
X1155391Y1004570D01*
Y885190D01*
X1155391Y885190D01*
X1155608Y884100D01*
X1156226Y883176D01*
X1164354Y875048D01*
X1164354Y875048D01*
X1165278Y874430D01*
X1166368Y874213D01*
X1169416D01*
Y870966D01*
X1185164D01*
Y883158D01*
X1169416D01*
Y880229D01*
X1167416Y880043D01*
X1161089Y886370D01*
Y1003390D01*
X1165770Y1008071D01*
X1170070D01*
Y997420D01*
Y972020D01*
X1174055D01*
X1174441Y971550D01*
X1174441Y971550D01*
Y933196D01*
X1169416D01*
Y921004D01*
X1185164D01*
Y933196D01*
X1180139D01*
Y970370D01*
X1181789Y972020D01*
X1220070D01*
Y997420D01*
Y1008071D01*
X1222756D01*
Y1000506D01*
X1241044D01*
Y1016254D01*
X1222756D01*
Y1013769D01*
X1220070D01*
Y1022820D01*
Y1033471D01*
X1222756D01*
Y1028446D01*
X1241044D01*
Y1044194D01*
X1222756D01*
Y1039169D01*
X1220070D01*
Y1049820D01*
D02*
G37*
G36*
X1479080Y1151490D02*
X1452080D01*
Y1103163D01*
X1270000D01*
X1268235Y1102812D01*
X1266738Y1101812D01*
X1251498Y1086572D01*
X1250499Y1085075D01*
X1250147Y1083310D01*
Y1044194D01*
X1245616D01*
Y1028446D01*
X1250147D01*
Y1016254D01*
X1245616D01*
Y1000506D01*
X1263904D01*
Y1016254D01*
X1259373D01*
Y1028446D01*
X1263904D01*
Y1044194D01*
X1259373D01*
Y1081399D01*
X1271911Y1093937D01*
X1456436D01*
Y1083056D01*
X1464527D01*
Y955040D01*
X1464801Y953665D01*
X1465579Y952499D01*
X1470877Y947202D01*
Y893577D01*
X1413870Y836570D01*
X1413201Y835570D01*
X1412967Y834390D01*
X1412967Y834390D01*
Y816610D01*
X1412967Y816610D01*
X1413201Y815430D01*
X1413870Y814430D01*
X1432920Y795380D01*
X1432920Y795380D01*
X1433804Y794789D01*
X1433827Y794641D01*
X1433045Y793162D01*
X1431010Y792979D01*
X1410009Y813980D01*
Y835750D01*
X1466324Y892066D01*
X1466324Y892066D01*
X1466942Y892990D01*
X1467159Y894080D01*
X1467159Y894080D01*
Y946150D01*
X1467159Y946150D01*
X1466942Y947240D01*
X1466324Y948164D01*
X1466324Y948164D01*
X1440924Y973564D01*
X1440000Y974182D01*
X1438910Y974399D01*
X1438910Y974399D01*
X1391920D01*
X1391920Y974399D01*
X1390830Y974182D01*
X1389906Y973564D01*
X1389906Y973564D01*
X1385216Y968875D01*
X1384385Y968709D01*
X1383219Y967931D01*
X1382440Y966765D01*
X1382167Y965390D01*
Y958840D01*
Y946340D01*
Y931318D01*
X1377760Y926911D01*
X1373353Y931318D01*
Y952590D01*
Y958840D01*
Y975106D01*
X1375664D01*
Y990854D01*
X1357376D01*
Y975106D01*
X1366167D01*
Y964100D01*
X1365718Y963930D01*
X1364167Y963767D01*
X1363774Y964354D01*
X1363774Y964354D01*
X1349049Y979080D01*
Y998310D01*
X1355000Y1004261D01*
X1408430D01*
X1408430Y1004261D01*
X1408430Y1004261D01*
X1417066D01*
Y999236D01*
X1435354D01*
Y1014984D01*
X1417066D01*
Y1009959D01*
X1411789D01*
Y1040036D01*
X1437964D01*
Y1063084D01*
X1379916D01*
Y1040036D01*
X1406091D01*
Y1009959D01*
X1353820D01*
X1353820Y1009959D01*
X1352730Y1009742D01*
X1351806Y1009124D01*
X1344186Y1001504D01*
X1343568Y1000580D01*
X1343351Y999490D01*
X1343351Y999490D01*
Y977900D01*
X1343351Y977900D01*
X1343568Y976810D01*
X1344186Y975886D01*
X1356254Y963817D01*
X1355135Y962160D01*
X1353760Y962433D01*
X1352385Y962160D01*
X1351392Y961496D01*
X1335024Y977865D01*
Y990854D01*
X1328729D01*
Y1019810D01*
X1328729Y1019810D01*
X1328512Y1020900D01*
X1327894Y1021824D01*
X1327894Y1021824D01*
X1316789Y1032930D01*
Y1040036D01*
X1342964D01*
Y1063084D01*
X1284916D01*
Y1040036D01*
X1311091D01*
Y1031750D01*
X1311091Y1031750D01*
X1311308Y1030660D01*
X1311926Y1029736D01*
X1323031Y1018630D01*
Y990854D01*
X1316736D01*
Y975106D01*
X1329725D01*
X1350167Y954664D01*
Y946340D01*
X1350441Y944965D01*
X1351219Y943799D01*
X1352385Y943020D01*
X1353760Y942747D01*
X1355135Y943020D01*
X1356301Y943799D01*
X1356649Y944320D01*
X1356764Y944362D01*
X1358756D01*
X1358871Y944320D01*
X1359219Y943799D01*
X1360385Y943020D01*
X1361760Y942747D01*
X1363135Y943020D01*
X1364167Y943710D01*
X1364866Y943555D01*
X1366167Y942993D01*
Y929830D01*
X1366440Y928455D01*
X1367219Y927289D01*
X1374167Y920342D01*
Y893863D01*
X1365250D01*
X1363875Y893589D01*
X1362709Y892811D01*
X1359219Y889321D01*
X1358441Y888155D01*
X1358167Y886780D01*
Y878187D01*
X1356866Y877625D01*
X1356167Y877470D01*
X1355135Y878159D01*
X1353760Y878433D01*
X1352385Y878159D01*
X1351219Y877381D01*
X1350441Y876215D01*
X1350167Y874840D01*
Y871439D01*
X1344930D01*
X1344930Y871439D01*
X1343840Y871222D01*
X1342916Y870604D01*
X1342916Y870604D01*
X1331006Y858695D01*
X1330945Y858742D01*
X1329114Y859500D01*
X1327150Y859759D01*
X1325186Y859500D01*
X1324086Y859045D01*
X1322239Y859762D01*
X1321856Y860113D01*
X1321771Y860573D01*
X1340196Y878997D01*
X1346010D01*
X1347385Y879270D01*
X1348551Y880049D01*
X1349330Y881215D01*
X1349603Y882590D01*
X1349330Y883965D01*
X1348551Y885131D01*
X1348030Y885479D01*
X1347988Y885594D01*
Y887586D01*
X1348030Y887701D01*
X1348551Y888049D01*
X1349330Y889215D01*
X1349603Y890590D01*
X1349330Y891965D01*
X1348551Y893131D01*
X1348030Y893479D01*
X1347988Y893594D01*
Y895586D01*
X1348030Y895701D01*
X1348551Y896049D01*
X1349330Y897215D01*
X1349603Y898590D01*
X1349330Y899965D01*
X1348551Y901131D01*
X1348030Y901479D01*
X1347988Y901594D01*
Y903586D01*
X1348030Y903701D01*
X1348551Y904049D01*
X1349330Y905215D01*
X1349603Y906590D01*
X1349330Y907965D01*
X1348551Y909131D01*
X1348030Y909479D01*
X1347988Y909594D01*
Y911586D01*
X1348030Y911701D01*
X1348551Y912049D01*
X1349330Y913215D01*
X1349603Y914590D01*
X1349330Y915965D01*
X1348551Y917131D01*
X1348030Y917479D01*
X1347988Y917594D01*
Y919586D01*
X1348030Y919701D01*
X1348551Y920049D01*
X1349330Y921215D01*
X1349603Y922590D01*
X1349330Y923965D01*
X1348551Y925131D01*
X1348030Y925479D01*
X1347988Y925594D01*
Y927586D01*
X1348030Y927701D01*
X1348551Y928049D01*
X1349330Y929215D01*
X1349603Y930590D01*
X1349330Y931965D01*
X1348551Y933131D01*
X1348030Y933479D01*
X1347988Y933594D01*
Y935586D01*
X1348030Y935701D01*
X1348551Y936049D01*
X1349330Y937215D01*
X1349603Y938590D01*
X1349330Y939965D01*
X1348551Y941131D01*
X1347385Y941909D01*
X1346010Y942183D01*
X1333510D01*
X1332135Y941909D01*
X1331341Y941379D01*
X1263904D01*
Y945134D01*
X1245616D01*
Y929386D01*
X1263904D01*
Y935681D01*
X1329001D01*
X1329836Y933681D01*
X1329596Y933439D01*
X1306510D01*
X1305420Y933222D01*
X1304496Y932604D01*
X1304496Y932604D01*
X1285330Y913439D01*
X1263904D01*
Y918464D01*
X1245616D01*
Y902716D01*
X1263904D01*
Y907741D01*
X1286510D01*
X1286510Y907741D01*
X1287077Y907854D01*
X1288163Y906112D01*
X1268820Y886769D01*
X1263904D01*
Y891794D01*
X1245616D01*
Y876046D01*
X1263904D01*
Y881071D01*
X1270000D01*
X1270000Y881071D01*
X1271090Y881288D01*
X1272014Y881906D01*
X1309850Y919741D01*
X1329060D01*
X1329895Y917741D01*
X1329596Y917439D01*
X1312100D01*
X1311010Y917222D01*
X1310086Y916604D01*
X1310086Y916604D01*
X1259930Y866449D01*
X1244600D01*
X1243510Y866232D01*
X1242586Y865614D01*
X1242586Y865614D01*
X1235745Y858774D01*
X1222756D01*
Y840486D01*
X1238504D01*
Y853475D01*
X1245780Y860751D01*
X1249371D01*
X1249426Y858774D01*
X1249426Y858751D01*
Y840486D01*
X1265174D01*
Y853475D01*
X1315440Y903741D01*
X1329060D01*
X1329895Y901741D01*
X1329596Y901439D01*
X1324280D01*
X1323190Y901222D01*
X1322266Y900604D01*
X1322266Y900604D01*
X1281956Y860294D01*
X1281338Y859370D01*
X1281219Y858774D01*
X1276096D01*
Y840486D01*
X1291844D01*
Y858774D01*
X1291106D01*
X1290341Y860622D01*
X1299651Y869932D01*
X1301494Y868947D01*
X1301441Y868680D01*
X1301441Y868680D01*
Y802550D01*
X1292950Y794059D01*
X1259840D01*
X1259840Y794059D01*
X1258750Y793842D01*
X1257826Y793224D01*
X1257826Y793224D01*
X1247285Y782684D01*
X1242128D01*
X1237116Y777672D01*
Y766648D01*
X1242128Y761636D01*
X1252152D01*
X1257164Y766648D01*
Y777672D01*
X1253747Y781089D01*
X1261020Y788361D01*
X1294130D01*
X1294130Y788361D01*
X1295220Y788578D01*
X1296144Y789196D01*
X1306304Y799356D01*
X1306304Y799356D01*
X1306922Y800280D01*
X1307139Y801370D01*
Y867500D01*
X1327380Y887741D01*
X1331430D01*
X1331490Y887701D01*
X1331532Y887586D01*
Y885594D01*
X1331490Y885479D01*
X1330969Y885131D01*
X1330190Y883965D01*
X1329917Y882590D01*
X1330190Y881215D01*
X1330969Y880049D01*
X1330859Y877718D01*
X1315611Y862469D01*
X1314993Y861545D01*
X1314776Y860455D01*
X1314776Y860455D01*
Y835025D01*
X1314776Y835025D01*
X1314993Y833935D01*
X1315611Y833011D01*
X1318786Y829836D01*
X1318786Y829836D01*
X1319710Y829218D01*
X1320131Y829134D01*
X1320578Y828055D01*
X1321784Y826484D01*
X1323356Y825278D01*
X1325186Y824520D01*
X1327150Y824261D01*
X1329114Y824520D01*
X1330945Y825278D01*
X1332516Y826484D01*
X1333722Y828055D01*
X1334480Y829886D01*
X1334739Y831850D01*
X1334480Y833814D01*
X1333722Y835645D01*
X1332516Y837216D01*
X1330945Y838422D01*
X1329114Y839180D01*
X1327150Y839439D01*
X1325186Y839180D01*
X1323356Y838422D01*
X1322474Y837746D01*
X1320474Y838643D01*
Y845377D01*
X1322474Y846274D01*
X1323356Y845598D01*
X1325186Y844840D01*
X1327150Y844581D01*
X1329114Y844840D01*
X1330945Y845598D01*
X1332516Y846804D01*
X1333722Y848375D01*
X1334480Y850206D01*
X1334739Y852170D01*
X1334483Y854114D01*
X1346110Y865741D01*
X1350167D01*
Y862340D01*
X1350441Y860965D01*
X1351219Y859799D01*
X1352385Y859020D01*
X1353760Y858747D01*
X1355135Y859020D01*
X1356301Y859799D01*
X1358235Y859094D01*
X1358911Y858426D01*
Y854940D01*
X1352377Y848405D01*
X1350381Y848536D01*
X1350296Y848646D01*
X1348725Y849852D01*
X1346894Y850610D01*
X1344930Y850869D01*
X1342966Y850610D01*
X1341136Y849852D01*
X1339564Y848646D01*
X1338358Y847075D01*
X1337600Y845244D01*
X1337341Y843280D01*
X1337600Y841316D01*
X1338358Y839485D01*
X1339564Y837914D01*
X1341136Y836708D01*
X1342966Y835950D01*
X1344930Y835691D01*
X1346894Y835950D01*
X1348725Y836708D01*
X1350296Y837914D01*
X1351502Y839485D01*
X1351949Y840564D01*
X1352370Y840648D01*
X1353294Y841266D01*
X1363774Y851746D01*
X1363774Y851746D01*
X1364392Y852670D01*
X1364609Y853760D01*
X1364609Y853760D01*
Y860260D01*
X1364649Y860320D01*
X1364764Y860362D01*
X1366756D01*
X1366871Y860320D01*
X1367219Y859799D01*
X1368385Y859020D01*
X1369760Y858747D01*
X1371135Y859020D01*
X1372301Y859799D01*
X1372649Y860320D01*
X1372764Y860362D01*
X1374756D01*
X1374871Y860320D01*
X1375219Y859799D01*
X1376385Y859020D01*
X1377760Y858747D01*
X1379135Y859020D01*
X1380301Y859799D01*
X1381080Y860965D01*
X1381353Y862340D01*
Y874840D01*
Y890270D01*
Y920342D01*
X1388301Y927289D01*
X1389079Y928455D01*
X1389353Y929830D01*
Y952590D01*
Y964954D01*
X1393100Y968701D01*
X1437730D01*
X1461461Y944970D01*
Y932540D01*
X1459461Y932143D01*
X1459452Y932165D01*
X1458246Y933736D01*
X1456674Y934942D01*
X1454844Y935700D01*
X1452880Y935959D01*
X1450916Y935700D01*
X1449086Y934942D01*
X1447514Y933736D01*
X1446308Y932165D01*
X1445550Y930334D01*
X1445291Y928370D01*
X1445414Y927439D01*
X1444097Y925610D01*
X1443786Y925439D01*
X1434460D01*
X1433625Y927439D01*
X1433924Y927741D01*
X1437320D01*
X1437320Y927741D01*
X1438410Y927958D01*
X1439334Y928576D01*
X1442194Y931436D01*
X1442812Y932360D01*
X1443029Y933450D01*
X1443029Y933450D01*
Y942996D01*
X1443974Y943388D01*
X1445546Y944594D01*
X1446752Y946165D01*
X1447510Y947996D01*
X1447769Y949960D01*
X1447510Y951924D01*
X1446752Y953755D01*
X1445546Y955326D01*
X1443974Y956532D01*
X1442144Y957290D01*
X1440180Y957549D01*
X1438216Y957290D01*
X1436385Y956532D01*
X1434814Y955326D01*
X1433608Y953755D01*
X1432850Y951924D01*
X1432591Y949960D01*
X1432850Y947996D01*
X1433608Y946165D01*
X1434814Y944594D01*
X1436385Y943388D01*
X1437331Y942996D01*
Y934630D01*
X1436140Y933439D01*
X1432090D01*
X1432030Y933479D01*
X1431988Y933594D01*
Y935586D01*
X1432030Y935701D01*
X1432551Y936049D01*
X1433329Y937215D01*
X1433603Y938590D01*
X1433329Y939965D01*
X1432551Y941131D01*
X1431385Y941909D01*
X1430010Y942183D01*
X1417510D01*
X1416135Y941909D01*
X1414969Y941131D01*
X1414191Y939965D01*
X1413917Y938590D01*
X1414191Y937215D01*
X1414969Y936049D01*
X1415491Y935701D01*
X1415532Y935586D01*
Y933594D01*
X1415491Y933479D01*
X1414969Y933131D01*
X1414191Y931965D01*
X1413917Y930590D01*
X1414191Y929215D01*
X1414969Y928049D01*
X1415491Y927701D01*
X1415532Y927586D01*
Y925594D01*
X1415491Y925479D01*
X1414969Y925131D01*
X1414191Y923965D01*
X1413917Y922590D01*
X1414191Y921215D01*
X1414969Y920049D01*
X1415491Y919701D01*
X1415532Y919586D01*
Y917594D01*
X1415491Y917479D01*
X1414969Y917131D01*
X1414191Y915965D01*
X1413917Y914590D01*
X1414191Y913215D01*
X1414969Y912049D01*
X1415491Y911701D01*
X1415532Y911586D01*
Y909594D01*
X1415491Y909479D01*
X1414969Y909131D01*
X1414191Y907965D01*
X1413917Y906590D01*
X1414191Y905215D01*
X1414969Y904049D01*
X1415491Y903701D01*
X1415532Y903586D01*
Y901594D01*
X1415491Y901479D01*
X1414969Y901131D01*
X1414191Y899965D01*
X1413917Y898590D01*
X1414191Y897215D01*
X1414969Y896049D01*
X1415491Y895701D01*
X1415532Y895586D01*
Y893594D01*
X1415491Y893479D01*
X1414969Y893131D01*
X1414191Y891965D01*
X1413917Y890590D01*
X1414191Y889215D01*
X1414969Y888049D01*
X1415491Y887701D01*
X1415532Y887586D01*
Y885594D01*
X1415491Y885479D01*
X1414969Y885131D01*
X1414191Y883965D01*
X1413917Y882590D01*
X1414191Y881215D01*
X1414969Y880049D01*
X1416135Y879270D01*
X1417510Y878997D01*
X1430010D01*
X1431385Y879270D01*
X1432551Y880049D01*
X1433329Y881215D01*
X1433603Y882590D01*
X1433329Y883965D01*
X1432551Y885131D01*
X1432030Y885479D01*
X1431988Y885594D01*
Y887586D01*
X1432030Y887701D01*
X1432551Y888049D01*
X1433329Y889215D01*
X1433603Y890590D01*
X1433329Y891965D01*
X1432551Y893131D01*
X1432030Y893479D01*
X1431988Y893594D01*
Y895586D01*
X1432030Y895701D01*
X1432551Y896049D01*
X1433329Y897215D01*
X1433603Y898590D01*
X1433329Y899965D01*
X1432551Y901131D01*
X1432030Y901479D01*
X1431988Y901594D01*
Y903586D01*
X1432030Y903701D01*
X1432551Y904049D01*
X1433329Y905215D01*
X1433603Y906590D01*
X1433329Y907965D01*
X1432551Y909131D01*
X1432891Y910065D01*
X1434724Y909706D01*
X1434878Y909335D01*
X1436084Y907764D01*
X1437655Y906558D01*
X1439486Y905800D01*
X1441450Y905541D01*
X1443414Y905800D01*
X1445244Y906558D01*
X1446816Y907764D01*
X1448022Y909335D01*
X1448780Y911166D01*
X1449039Y913130D01*
X1448780Y915094D01*
X1448022Y916925D01*
X1447344Y917809D01*
X1447996Y919811D01*
X1448114Y919943D01*
X1448190Y919958D01*
X1449114Y920576D01*
X1449970Y921431D01*
X1450916Y921040D01*
X1452880Y920781D01*
X1454844Y921040D01*
X1456674Y921798D01*
X1458246Y923004D01*
X1459452Y924576D01*
X1459461Y924597D01*
X1461461Y924200D01*
Y895260D01*
X1414238Y848037D01*
X1412496Y849123D01*
X1412609Y849690D01*
X1412609Y849690D01*
Y860260D01*
X1413080Y860965D01*
X1413353Y862340D01*
Y874840D01*
X1413080Y876215D01*
X1412301Y877381D01*
X1411135Y878159D01*
X1409760Y878433D01*
X1408385Y878159D01*
X1407219Y877381D01*
X1406871Y876860D01*
X1406756Y876818D01*
X1404764D01*
X1404649Y876860D01*
X1404301Y877381D01*
X1403135Y878159D01*
X1401760Y878433D01*
X1400385Y878159D01*
X1399219Y877381D01*
X1398871Y876860D01*
X1398756Y876818D01*
X1396764D01*
X1396649Y876860D01*
X1396301Y877381D01*
X1395135Y878159D01*
X1393760Y878433D01*
X1392385Y878159D01*
X1391219Y877381D01*
X1390441Y876215D01*
X1390167Y874840D01*
Y862340D01*
X1390441Y860965D01*
X1391219Y859799D01*
X1392385Y859020D01*
X1393760Y858747D01*
X1395135Y859020D01*
X1396301Y859799D01*
X1398235Y859094D01*
X1398911Y858426D01*
Y853030D01*
X1345020Y799139D01*
X1314450D01*
X1314450Y799139D01*
X1313360Y798922D01*
X1312436Y798304D01*
X1312436Y798304D01*
X1296815Y782684D01*
X1292928D01*
X1287916Y777672D01*
Y766648D01*
X1292928Y761636D01*
X1302952D01*
X1307964Y766648D01*
Y777672D01*
X1303912Y781724D01*
X1315630Y793441D01*
X1326437D01*
X1327162Y791441D01*
X1321326Y785604D01*
X1320708Y784680D01*
X1320491Y783590D01*
X1318874Y782684D01*
X1318328D01*
X1313316Y777672D01*
Y766648D01*
X1318328Y761636D01*
X1328352D01*
X1333364Y766648D01*
Y777672D01*
X1328822Y782214D01*
X1328430Y784651D01*
X1330870Y787091D01*
X1350010D01*
X1350010Y787091D01*
X1351100Y787308D01*
X1352024Y787926D01*
X1402682Y838584D01*
X1404424Y837497D01*
X1404311Y836930D01*
X1404311Y836930D01*
Y812800D01*
X1404311Y812800D01*
X1404528Y811710D01*
X1405146Y810786D01*
X1428006Y787926D01*
X1428006Y787926D01*
X1428930Y787308D01*
X1430020Y787091D01*
X1465670D01*
X1468230Y784532D01*
X1467464Y782684D01*
X1465716D01*
Y761636D01*
X1485764D01*
Y782684D01*
X1478009D01*
X1477754Y783064D01*
X1477754Y783064D01*
X1468864Y791954D01*
X1468082Y792477D01*
X1468065Y792622D01*
X1469270Y794477D01*
X1478273D01*
X1489167Y783583D01*
Y749609D01*
X1485764D01*
Y752272D01*
X1480752Y757284D01*
X1470728D01*
X1465716Y752272D01*
Y741248D01*
X1470728Y736236D01*
X1480752D01*
X1485764Y741248D01*
Y743911D01*
X1489801D01*
X1490980Y743677D01*
X1492160Y743912D01*
X1493160Y744580D01*
X1494430Y745850D01*
X1494430Y745850D01*
X1495099Y746850D01*
X1495333Y748030D01*
X1495333Y748030D01*
Y784860D01*
X1495333Y784860D01*
X1495099Y786040D01*
X1494430Y787040D01*
X1494430Y787040D01*
X1481730Y799740D01*
X1480730Y800408D01*
X1479550Y800643D01*
X1479550Y800643D01*
X1436377D01*
X1419133Y817887D01*
Y833113D01*
X1475428Y889408D01*
X1475845Y889491D01*
X1477011Y890269D01*
X1477789Y891435D01*
X1478063Y892810D01*
Y948690D01*
X1477789Y950065D01*
X1477011Y951231D01*
X1471713Y956528D01*
Y1083056D01*
X1474724D01*
Y1098804D01*
X1473044D01*
X1472585Y1099490D01*
X1473654Y1101490D01*
X1479080D01*
Y1151490D01*
D02*
G37*
G36*
X1455352Y782684D02*
X1445328D01*
X1440316Y777672D01*
Y766648D01*
X1445328Y761636D01*
X1455352D01*
X1460364Y766648D01*
Y777672D01*
X1455352Y782684D01*
D02*
G37*
G36*
X1429952D02*
X1419928D01*
X1414916Y777672D01*
Y766648D01*
X1419928Y761636D01*
X1429952D01*
X1434964Y766648D01*
Y777672D01*
X1429952Y782684D01*
D02*
G37*
G36*
X1404552D02*
X1394528D01*
X1389516Y777672D01*
Y766648D01*
X1394528Y761636D01*
X1404552D01*
X1409564Y766648D01*
Y777672D01*
X1404552Y782684D01*
D02*
G37*
G36*
X1238504Y835914D02*
X1222756D01*
Y817626D01*
X1227781D01*
Y814684D01*
X1226835Y814292D01*
X1225264Y813086D01*
X1224058Y811515D01*
X1223300Y809684D01*
X1223041Y807720D01*
X1223300Y805756D01*
X1224058Y803925D01*
X1225264Y802354D01*
X1226835Y801148D01*
X1228666Y800390D01*
X1230630Y800131D01*
X1232594Y800390D01*
X1234425Y801148D01*
X1235996Y802354D01*
X1237202Y803925D01*
X1237960Y805756D01*
X1238219Y807720D01*
X1237960Y809684D01*
X1237202Y811515D01*
X1235996Y813086D01*
X1234425Y814292D01*
X1233479Y814684D01*
Y817626D01*
X1238504D01*
Y835914D01*
D02*
G37*
G36*
X1241044Y891794D02*
X1222756D01*
Y878805D01*
X1210836Y866884D01*
X1210218Y865960D01*
X1210001Y864870D01*
X1210001Y864870D01*
Y834808D01*
X1201709Y826516D01*
X1191514D01*
Y814324D01*
X1203706D01*
Y820455D01*
X1214864Y831614D01*
X1215482Y832538D01*
X1215699Y833628D01*
X1215699Y833628D01*
Y863690D01*
X1228055Y876046D01*
X1241044D01*
Y891794D01*
D02*
G37*
G36*
X1291844Y835914D02*
X1276096D01*
Y817626D01*
X1281121D01*
Y814684D01*
X1280175Y814292D01*
X1278604Y813086D01*
X1277398Y811515D01*
X1276640Y809684D01*
X1276381Y807720D01*
X1276640Y805756D01*
X1277398Y803925D01*
X1278604Y802354D01*
X1280175Y801148D01*
X1282006Y800390D01*
X1283970Y800131D01*
X1285934Y800390D01*
X1287764Y801148D01*
X1289336Y802354D01*
X1290542Y803925D01*
X1291300Y805756D01*
X1291559Y807720D01*
X1291300Y809684D01*
X1290542Y811515D01*
X1289336Y813086D01*
X1287764Y814292D01*
X1286819Y814684D01*
Y817626D01*
X1291844D01*
Y835914D01*
D02*
G37*
G36*
X1265174D02*
X1249426D01*
Y817626D01*
X1254451D01*
Y814684D01*
X1253505Y814292D01*
X1251934Y813086D01*
X1250728Y811515D01*
X1249970Y809684D01*
X1249711Y807720D01*
X1249970Y805756D01*
X1250728Y803925D01*
X1251934Y802354D01*
X1253505Y801148D01*
X1255336Y800390D01*
X1257300Y800131D01*
X1259264Y800390D01*
X1261095Y801148D01*
X1262666Y802354D01*
X1263872Y803925D01*
X1264630Y805756D01*
X1264889Y807720D01*
X1264630Y809684D01*
X1263872Y811515D01*
X1262666Y813086D01*
X1261095Y814292D01*
X1260149Y814684D01*
Y817626D01*
X1265174D01*
Y835914D01*
D02*
G37*
%LPD*%
D10*
X1488440Y1090930D02*
D03*
X1465580D02*
D03*
X1254760Y1036320D02*
D03*
X1231900D02*
D03*
X1254760Y1008380D02*
D03*
X1231900D02*
D03*
X1426210Y1007110D02*
D03*
X1449070D02*
D03*
X1325880Y982980D02*
D03*
X1303020D02*
D03*
X1366520D02*
D03*
X1389380D02*
D03*
X1231900Y883920D02*
D03*
X1254760D02*
D03*
X1231900Y910590D02*
D03*
X1254760D02*
D03*
X1231900Y937260D02*
D03*
X1254760D02*
D03*
D11*
X1423760Y938590D02*
D03*
Y930590D02*
D03*
Y922590D02*
D03*
Y914590D02*
D03*
Y906590D02*
D03*
Y898590D02*
D03*
Y890590D02*
D03*
Y882590D02*
D03*
X1339760D02*
D03*
Y890590D02*
D03*
Y898590D02*
D03*
Y906590D02*
D03*
Y914590D02*
D03*
Y922590D02*
D03*
Y930590D02*
D03*
Y938590D02*
D03*
D12*
X1409760Y868590D02*
D03*
X1401760D02*
D03*
X1393760D02*
D03*
X1385760D02*
D03*
X1377760D02*
D03*
X1369760D02*
D03*
X1361760D02*
D03*
X1353760D02*
D03*
Y952590D02*
D03*
X1361760D02*
D03*
X1369760D02*
D03*
X1377760D02*
D03*
X1385760D02*
D03*
X1393760D02*
D03*
X1401760D02*
D03*
X1409760D02*
D03*
D13*
X1177290Y830072D02*
D03*
Y877062D02*
D03*
Y927100D02*
D03*
D14*
X1197610Y839470D02*
D03*
Y820420D02*
D03*
Y886460D02*
D03*
Y867410D02*
D03*
Y936498D02*
D03*
Y917448D02*
D03*
D15*
X1408940Y1051560D02*
D03*
X1313940D02*
D03*
D16*
X1283970Y826770D02*
D03*
Y849630D02*
D03*
X1257300Y826770D02*
D03*
Y849630D02*
D03*
X1230630Y826770D02*
D03*
Y849630D02*
D03*
X1454150Y821690D02*
D03*
Y844550D02*
D03*
D17*
X1390650Y982980D02*
X1419860D01*
X1389380D02*
X1390650D01*
X1195070Y1010920D02*
X1229360D01*
X1197610Y867410D02*
X1203960D01*
X1257300Y849630D02*
Y852170D01*
X1317625Y835025D02*
Y860455D01*
X1339760Y882590D01*
X1317625Y835025D02*
X1320800Y831850D01*
X1327150D01*
X1344930Y868590D02*
X1353760D01*
X1328510Y852170D02*
X1344930Y868590D01*
X1328330Y852170D02*
X1328510D01*
X1259840Y791210D02*
X1294130D01*
X1247140Y778510D02*
X1259840Y791210D01*
X1197610Y917448D02*
X1200658D01*
X1385760Y965390D02*
X1391920Y971550D01*
X1221740Y1125220D02*
X1223010Y1123950D01*
X1165606Y1125220D02*
X1170940D01*
X1408430Y1007110D02*
X1426210D01*
X1408940Y1007620D02*
Y1051560D01*
X1408430Y1007110D02*
X1408940Y1007620D01*
X1369760Y981140D02*
X1371600Y982980D01*
X1391920Y906780D02*
X1393760Y908620D01*
X1449070Y989330D02*
Y1007110D01*
X1158240Y885190D02*
X1166368Y877062D01*
X1177290D01*
X1202690Y1036320D02*
X1229360D01*
X1422400Y1010920D02*
X1426210Y1007110D01*
X1247140Y772160D02*
Y778510D01*
X1297940Y772160D02*
Y779780D01*
X1197610Y886460D02*
Y899160D01*
X1167638Y830072D02*
X1177290D01*
X1146810Y850900D02*
X1167638Y830072D01*
X1197610Y820420D02*
X1199642D01*
X1212850Y833628D01*
X1197610Y839470D02*
Y853440D01*
X1419860Y982980D02*
X1421130Y984250D01*
X1391920Y971550D02*
X1438910D01*
X1423760Y930590D02*
X1437320D01*
X1440180Y933450D01*
X1423760Y914590D02*
X1438720D01*
X1440180Y933450D02*
Y949960D01*
X1423760Y922590D02*
X1447100D01*
X1452880Y928370D01*
X1438910Y971550D02*
X1464310Y946150D01*
X1475740Y772160D02*
Y781050D01*
Y746760D02*
X1490980D01*
X1464310Y894080D02*
Y946150D01*
X1348740Y732790D02*
Y746760D01*
Y732790D02*
X1352550Y728980D01*
X1283970Y849630D02*
Y858280D01*
X1324280Y898590D01*
X1339760D01*
X1257300Y849630D02*
X1314260Y906590D01*
X1339760D01*
X1230630Y849630D02*
X1244600Y863600D01*
X1261110D02*
X1312100Y914590D01*
X1339760D01*
X1212850Y864870D02*
X1231900Y883920D01*
X1212850Y833628D02*
Y864870D01*
X1254760Y883920D02*
X1270000D01*
X1308670Y922590D01*
X1339760D01*
X1244600Y863600D02*
X1261110D01*
X1230630Y807720D02*
Y826770D01*
X1257300Y807720D02*
Y826770D01*
X1283970Y807720D02*
Y826770D01*
X1326200Y890590D02*
X1339760D01*
X1254760Y910590D02*
X1286510D01*
X1306510Y930590D01*
X1339760D01*
X1224280Y910590D02*
X1231900D01*
X1203960Y867410D02*
X1212850Y876300D01*
Y899160D01*
X1224280Y910590D01*
X1256030Y938530D02*
X1339700D01*
X1339760Y938590D01*
X1325880Y982980D02*
Y1019810D01*
Y982980D02*
X1353760Y955100D01*
Y952590D02*
Y955100D01*
X1303020Y982980D02*
Y1008380D01*
X1177290Y927100D02*
Y971550D01*
X1191260Y985520D01*
X1197610Y936498D02*
Y951230D01*
X1323340Y772160D02*
Y783590D01*
X1329690Y789940D01*
X1297940Y779780D02*
X1314450Y796290D01*
X1294130Y791210D02*
X1304290Y801370D01*
Y868680D01*
X1326200Y890590D01*
X1466850Y789940D02*
X1475740Y781050D01*
X1220470Y937260D02*
X1231900D01*
X1200658Y917448D02*
X1220470Y937260D01*
X1353820Y1007110D02*
X1408430D01*
X1346200Y999490D02*
X1353820Y1007110D01*
X1346200Y977900D02*
Y999490D01*
Y977900D02*
X1361760Y962340D01*
Y952590D02*
Y962340D01*
X1170940Y1085850D02*
Y1125220D01*
Y1085850D02*
X1195070Y1061720D01*
X1146810Y850900D02*
Y1021080D01*
X1162050Y1036320D01*
X1195070D01*
X1158240Y885190D02*
Y1004570D01*
X1164590Y1010920D01*
X1191260D01*
X1454150Y844550D02*
X1490980D01*
X1454150Y821690D02*
X1488440D01*
X1490980Y819150D01*
X1361760Y853760D02*
Y868590D01*
X1344930Y843280D02*
X1351280D01*
X1361760Y853760D01*
X1314450Y796290D02*
X1346200D01*
X1401760Y851850D01*
Y868590D01*
X1329690Y789940D02*
X1350010D01*
X1409760Y849690D01*
Y868590D01*
X1407160Y836930D02*
X1464310Y894080D01*
X1437640Y821690D02*
X1454150D01*
X1431290Y828040D02*
X1437640Y821690D01*
X1352550Y728980D02*
X1484630D01*
X1407160Y812800D02*
Y836930D01*
Y812800D02*
X1430020Y789940D01*
X1466850D01*
X1313940Y1031750D02*
X1325880Y1019810D01*
X1313940Y1031750D02*
Y1051560D01*
X1504950Y749300D02*
Y792480D01*
X1484630Y728980D02*
X1504950Y749300D01*
X1226820Y938530D02*
X1233170D01*
X1421130Y984250D02*
X1443990D01*
X1449070Y989330D01*
X1256030Y844550D02*
Y850900D01*
D18*
X1369760Y952590D02*
Y981140D01*
X1377760Y952590D02*
Y970090D01*
X1385760Y929830D02*
Y952590D01*
Y965390D01*
X1377760Y890270D02*
Y921830D01*
Y868590D02*
Y890270D01*
X1365250D02*
X1377760D01*
X1361760Y886780D02*
X1365250Y890270D01*
X1361760Y868590D02*
Y886780D01*
X1369760Y929830D02*
X1377760Y921830D01*
X1369760Y929830D02*
Y952590D01*
X1377760Y921830D02*
X1385760Y929830D01*
Y900620D02*
X1391920Y906780D01*
X1385760Y868590D02*
Y900620D01*
X1393760Y908620D02*
Y952590D01*
X1371600Y772160D02*
X1374140D01*
X1398270Y746760D02*
X1399540D01*
X1195070Y1036320D02*
X1201420D01*
X1474470Y892810D02*
Y948690D01*
X1468120Y955040D02*
X1474470Y948690D01*
X1468120Y955040D02*
Y1096010D01*
X1256030Y850900D02*
X1257300Y852170D01*
X1377760Y970090D02*
X1390650Y982980D01*
D19*
X1191260Y1010920D02*
X1195070D01*
D20*
X1489710Y1125220D02*
X1490980Y1126490D01*
X1254760Y1008380D02*
Y1036320D01*
X1465580Y1098550D02*
X1468120Y1096010D01*
X1465580Y1098550D02*
Y1126490D01*
X1254760Y1036320D02*
Y1083310D01*
X1270000Y1098550D01*
X1465580D01*
X1489710Y1054100D02*
Y1125220D01*
D21*
X1490980Y746760D02*
X1492250Y748030D01*
X1479550Y797560D02*
X1492250Y784860D01*
Y748030D02*
Y784860D01*
X1435100Y797560D02*
X1479550D01*
X1416050Y816610D02*
X1435100Y797560D01*
X1416050Y816610D02*
Y834390D01*
X1474470Y892810D01*
D22*
X1195070Y1061720D02*
D03*
Y1036320D02*
D03*
Y1010920D02*
D03*
Y985520D02*
D03*
X1490980Y869950D02*
D03*
Y844550D02*
D03*
Y819150D02*
D03*
D23*
X1170940Y1125220D02*
D03*
X1196340D02*
D03*
X1221740D02*
D03*
X1465580Y1126490D02*
D03*
X1490980D02*
D03*
D24*
X1170940Y746760D02*
D03*
Y772160D02*
D03*
X1196340Y746760D02*
D03*
Y772160D02*
D03*
X1221740Y746760D02*
D03*
Y772160D02*
D03*
X1247140Y746760D02*
D03*
Y772160D02*
D03*
X1272540Y746760D02*
D03*
Y772160D02*
D03*
X1297940Y746760D02*
D03*
Y772160D02*
D03*
X1323340Y746760D02*
D03*
Y772160D02*
D03*
X1348740Y746760D02*
D03*
Y772160D02*
D03*
X1374140Y746760D02*
D03*
Y772160D02*
D03*
X1399540Y746760D02*
D03*
Y772160D02*
D03*
X1424940Y746760D02*
D03*
Y772160D02*
D03*
X1450340Y746760D02*
D03*
Y772160D02*
D03*
X1475740Y746760D02*
D03*
D25*
Y772160D02*
D03*
D26*
X1159510Y815340D02*
D03*
X1327150Y831850D02*
D03*
Y852170D02*
D03*
X1197610Y853440D02*
D03*
X1391920Y906780D02*
D03*
X1197610Y899160D02*
D03*
X1489710Y1054100D02*
D03*
X1421130Y984250D02*
D03*
X1440180Y949960D02*
D03*
X1441450Y913130D02*
D03*
X1452880Y928370D02*
D03*
X1230630Y807720D02*
D03*
X1257300D02*
D03*
X1283970D02*
D03*
X1303020Y1008380D02*
D03*
X1197610Y951230D02*
D03*
X1344930Y843280D02*
D03*
X1431290Y828040D02*
D03*
X1504950Y792480D02*
D03*
X1361440Y1078230D02*
D03*
X1344930Y825500D02*
D03*
X1271270Y965200D02*
D03*
X1427480Y1117600D02*
D03*
X1504950Y894080D02*
D03*
X1187450Y795020D02*
D03*
M02*
