G04 Layer_Color=32896*
%FSLAX44Y44*%
%MOMM*%
G71*
G01*
G75*
%ADD28C,0.3048*%
%ADD31C,0.2032*%
D28*
X1135380Y838200D02*
X1158240D01*
X1135380Y886460D02*
X1158240D01*
X1135380Y838200D02*
Y857250D01*
X1158240Y838200D02*
Y857250D01*
Y867410D02*
Y886460D01*
X1135380Y867410D02*
Y886460D01*
X1163320D02*
X1186180D01*
X1163320Y838200D02*
X1186180D01*
Y867410D02*
Y886460D01*
X1163320Y867410D02*
Y886460D01*
Y838200D02*
Y857250D01*
X1186180Y838200D02*
Y857250D01*
X1337310Y798830D02*
X1356360D01*
X1337310Y821690D02*
X1356360D01*
X1366520D02*
X1385570D01*
X1366520Y798830D02*
X1385570D01*
X1337310D02*
Y821690D01*
X1385570Y798830D02*
Y821690D01*
X1438910Y798830D02*
Y821690D01*
X1390650Y798830D02*
Y821690D01*
X1419860Y798830D02*
X1438910D01*
X1419860Y821690D02*
X1438910D01*
X1390650D02*
X1409700D01*
X1390650Y798830D02*
X1409700D01*
X1219200Y843280D02*
Y862330D01*
X1242060Y843280D02*
Y862330D01*
Y814070D02*
Y833120D01*
X1219200Y814070D02*
Y833120D01*
Y862330D02*
X1242060D01*
X1219200Y814070D02*
X1242060D01*
X1245870Y843280D02*
Y862330D01*
X1268730Y843280D02*
Y862330D01*
Y814070D02*
Y833120D01*
X1245870Y814070D02*
Y833120D01*
Y862330D02*
X1268730D01*
X1245870Y814070D02*
X1268730D01*
X1272540Y843280D02*
Y862330D01*
X1295400Y843280D02*
Y862330D01*
Y814070D02*
Y833120D01*
X1272540Y814070D02*
Y833120D01*
Y862330D02*
X1295400D01*
X1272540Y814070D02*
X1295400D01*
X1379220Y854710D02*
X1398270D01*
X1379220Y831850D02*
X1398270D01*
X1350010D02*
X1369060D01*
X1350010Y854710D02*
X1369060D01*
X1398270Y831850D02*
Y854710D01*
X1350010Y831850D02*
Y854710D01*
D31*
X1140460Y806450D02*
X1150617D01*
Y811528D01*
X1148924Y813221D01*
X1145538D01*
X1143846Y811528D01*
Y806450D01*
Y809836D02*
X1140460Y813221D01*
Y816607D02*
Y819992D01*
Y818299D01*
X1150617D01*
X1148924Y816607D01*
X1140460Y825071D02*
Y828456D01*
Y826763D01*
X1150617D01*
X1148924Y825071D01*
X1169670Y806450D02*
X1179827D01*
Y811528D01*
X1178134Y813221D01*
X1174748D01*
X1173056Y811528D01*
Y806450D01*
Y809836D02*
X1169670Y813221D01*
Y816607D02*
Y819992D01*
Y818299D01*
X1179827D01*
X1178134Y816607D01*
Y825071D02*
X1179827Y826763D01*
Y830149D01*
X1178134Y831842D01*
X1171363D01*
X1169670Y830149D01*
Y826763D01*
X1171363Y825071D01*
X1178134D01*
X1445260Y816610D02*
Y806453D01*
X1450338D01*
X1452031Y808146D01*
Y811532D01*
X1450338Y813224D01*
X1445260D01*
X1448646D02*
X1452031Y816610D01*
X1455417Y814917D02*
X1457110Y816610D01*
X1460495D01*
X1462188Y814917D01*
Y808146D01*
X1460495Y806453D01*
X1457110D01*
X1455417Y808146D01*
Y809839D01*
X1457110Y811532D01*
X1462188D01*
X1276350Y889000D02*
X1266193D01*
Y883922D01*
X1267886Y882229D01*
X1271272D01*
X1272964Y883922D01*
Y889000D01*
Y885614D02*
X1276350Y882229D01*
X1267886Y878843D02*
X1266193Y877150D01*
Y873765D01*
X1267886Y872072D01*
X1269579D01*
X1271272Y873765D01*
X1272964Y872072D01*
X1274657D01*
X1276350Y873765D01*
Y877150D01*
X1274657Y878843D01*
X1272964D01*
X1271272Y877150D01*
X1269579Y878843D01*
X1267886D01*
X1271272Y877150D02*
Y873765D01*
X1249680Y889000D02*
X1239523D01*
Y883922D01*
X1241216Y882229D01*
X1244602D01*
X1246294Y883922D01*
Y889000D01*
Y885614D02*
X1249680Y882229D01*
X1239523Y878843D02*
Y872072D01*
X1241216D01*
X1247987Y878843D01*
X1249680D01*
X1214120Y885614D02*
X1203963D01*
Y880536D01*
X1205656Y878843D01*
X1209042D01*
X1210734Y880536D01*
Y885614D01*
Y882229D02*
X1214120Y878843D01*
Y875458D02*
Y872072D01*
Y873765D01*
X1203963D01*
X1205656Y875458D01*
X1324189Y813644D02*
X1325882Y815337D01*
X1329267D01*
X1330960Y813644D01*
Y806873D01*
X1329267Y805180D01*
X1325882D01*
X1324189Y806873D01*
X1320803Y813644D02*
X1319111Y815337D01*
X1315725D01*
X1314032Y813644D01*
Y811951D01*
X1315725Y810258D01*
X1317418D01*
X1315725D01*
X1314032Y808566D01*
Y806873D01*
X1315725Y805180D01*
X1319111D01*
X1320803Y806873D01*
X1361861Y866566D02*
X1360168Y864873D01*
X1356783D01*
X1355090Y866566D01*
Y873337D01*
X1356783Y875030D01*
X1360168D01*
X1361861Y873337D01*
X1372018Y864873D02*
X1365247D01*
Y869952D01*
X1368632Y868259D01*
X1370325D01*
X1372018Y869952D01*
Y873337D01*
X1370325Y875030D01*
X1366940D01*
X1365247Y873337D01*
M02*
