G04 Layer_Color=16711935*
%FSLAX44Y44*%
%MOMM*%
G71*
G01*
G75*
%ADD33R,1.7272X1.4732*%
%ADD39R,1.4732X1.7272*%
%ADD40R,4.2032X1.9032*%
%ADD41R,1.9032X4.2032*%
G04:AMPARAMS|DCode=42|XSize=1.9032mm|YSize=2.0032mm|CornerRadius=0mm|HoleSize=0mm|Usage=FLASHONLY|Rotation=180.000|XOffset=0mm|YOffset=0mm|HoleType=Round|Shape=Octagon|*
%AMOCTAGOND42*
4,1,8,0.4758,-1.0016,-0.4758,-1.0016,-0.9516,-0.5258,-0.9516,0.5258,-0.4758,1.0016,0.4758,1.0016,0.9516,0.5258,0.9516,-0.5258,0.4758,-1.0016,0.0*
%
%ADD42OCTAGOND42*%

%ADD43R,1.9032X2.0032*%
%ADD44C,1.4032*%
D33*
X1372870Y810260D02*
D03*
X1350010D02*
D03*
X1403350D02*
D03*
X1426210D02*
D03*
X1362710Y843280D02*
D03*
X1385570D02*
D03*
D39*
X1146810Y873760D02*
D03*
Y850900D02*
D03*
X1174750D02*
D03*
Y873760D02*
D03*
X1230630Y826770D02*
D03*
Y849630D02*
D03*
X1257300Y826770D02*
D03*
Y849630D02*
D03*
X1283970Y826770D02*
D03*
Y849630D02*
D03*
D40*
X1195070Y1061720D02*
D03*
Y1036320D02*
D03*
Y1010920D02*
D03*
Y985520D02*
D03*
X1490980Y869950D02*
D03*
Y844550D02*
D03*
Y819150D02*
D03*
D41*
X1170940Y1125220D02*
D03*
X1196340D02*
D03*
X1221740D02*
D03*
X1465580Y1126490D02*
D03*
X1490980D02*
D03*
D42*
X1170940Y746760D02*
D03*
Y772160D02*
D03*
X1196340Y746760D02*
D03*
Y772160D02*
D03*
X1221740Y746760D02*
D03*
Y772160D02*
D03*
X1247140Y746760D02*
D03*
Y772160D02*
D03*
X1272540Y746760D02*
D03*
Y772160D02*
D03*
X1297940Y746760D02*
D03*
Y772160D02*
D03*
X1323340Y746760D02*
D03*
Y772160D02*
D03*
X1348740Y746760D02*
D03*
Y772160D02*
D03*
X1374140Y746760D02*
D03*
Y772160D02*
D03*
X1399540Y746760D02*
D03*
Y772160D02*
D03*
X1424940Y746760D02*
D03*
Y772160D02*
D03*
X1450340Y746760D02*
D03*
Y772160D02*
D03*
X1475740Y746760D02*
D03*
D43*
Y772160D02*
D03*
D44*
X1159510Y815340D02*
D03*
X1327150Y831850D02*
D03*
Y852170D02*
D03*
X1197610Y853440D02*
D03*
X1391920Y906780D02*
D03*
X1197610Y899160D02*
D03*
X1489710Y1054100D02*
D03*
X1421130Y984250D02*
D03*
X1440180Y949960D02*
D03*
X1441450Y913130D02*
D03*
X1452880Y928370D02*
D03*
X1230630Y807720D02*
D03*
X1257300D02*
D03*
X1283970D02*
D03*
X1303020Y1008380D02*
D03*
X1197610Y951230D02*
D03*
X1344930Y843280D02*
D03*
X1431290Y828040D02*
D03*
X1504950Y792480D02*
D03*
X1361440Y1078230D02*
D03*
X1344930Y825500D02*
D03*
X1271270Y965200D02*
D03*
X1427480Y1117600D02*
D03*
X1504950Y894080D02*
D03*
X1187450Y795020D02*
D03*
M02*
